<svg width="48" height="28" viewBox="0 0 48 28" fill="none" xmlns="http://www.w3.org/2000/svg">
<path d="M2.64205 18H0.392045L4.48864 6.36364H7.09091L11.1932 18H8.94318L5.83523 8.75H5.74432L2.64205 18ZM2.71591 13.4375H8.85227V15.1307H2.71591V13.4375ZM12.7259 18V6.36364H14.7827V10.7159H14.8679C14.974 10.5038 15.1236 10.2784 15.3168 10.0398C15.5099 9.79735 15.7713 9.59091 16.1009 9.42045C16.4304 9.24621 16.8509 9.15909 17.3622 9.15909C18.0365 9.15909 18.6444 9.33144 19.1861 9.67614C19.7315 10.017 20.1634 10.5227 20.4815 11.1932C20.8035 11.8598 20.9645 12.678 20.9645 13.6477C20.9645 14.6061 20.8073 15.4205 20.4929 16.0909C20.1785 16.7614 19.7505 17.2727 19.2088 17.625C18.6671 17.9773 18.0535 18.1534 17.3679 18.1534C16.8679 18.1534 16.4531 18.0701 16.1236 17.9034C15.794 17.7367 15.5289 17.536 15.3281 17.3011C15.1312 17.0625 14.9777 16.8371 14.8679 16.625H14.7486V18H12.7259ZM14.7429 13.6364C14.7429 14.2008 14.8224 14.6951 14.9815 15.1193C15.1444 15.5436 15.3774 15.875 15.6804 16.1136C15.9872 16.3485 16.3584 16.4659 16.794 16.4659C17.2486 16.4659 17.6293 16.3447 17.9361 16.1023C18.2429 15.8561 18.474 15.5208 18.6293 15.0966C18.7884 14.6686 18.8679 14.1818 18.8679 13.6364C18.8679 13.0947 18.7902 12.6136 18.6349 12.1932C18.4796 11.7727 18.2486 11.4432 17.9418 11.2045C17.6349 10.9659 17.2524 10.8466 16.794 10.8466C16.3546 10.8466 15.9815 10.9621 15.6747 11.1932C15.3679 11.4242 15.1349 11.7481 14.9759 12.1648C14.8205 12.5814 14.7429 13.072 14.7429 13.6364ZM26.5199 18.1705C25.6676 18.1705 24.929 17.983 24.304 17.608C23.679 17.233 23.1941 16.7083 22.8494 16.0341C22.5085 15.3598 22.3381 14.572 22.3381 13.6705C22.3381 12.7689 22.5085 11.9792 22.8494 11.3011C23.1941 10.6231 23.679 10.0966 24.304 9.72159C24.929 9.34659 25.6676 9.15909 26.5199 9.15909C27.3722 9.15909 28.1108 9.34659 28.7358 9.72159C29.3608 10.0966 29.8438 10.6231 30.1847 11.3011C30.5294 11.9792 30.7017 12.7689 30.7017 13.6705C30.7017 14.572 30.5294 15.3598 30.1847 16.0341C29.8438 16.7083 29.3608 17.233 28.7358 17.608C28.1108 17.983 27.3722 18.1705 26.5199 18.1705ZM26.5312 16.5227C26.9934 16.5227 27.3797 16.3958 27.6903 16.142C28.0009 15.8845 28.232 15.5398 28.3835 15.108C28.5388 14.6761 28.6165 14.1951 28.6165 13.6648C28.6165 13.1307 28.5388 12.6477 28.3835 12.2159C28.232 11.7803 28.0009 11.4337 27.6903 11.1761C27.3797 10.9186 26.9934 10.7898 26.5312 10.7898C26.0578 10.7898 25.6638 10.9186 25.3494 11.1761C25.0388 11.4337 24.8059 11.7803 24.6506 12.2159C24.4991 12.6477 24.4233 13.1307 24.4233 13.6648C24.4233 14.1951 24.4991 14.6761 24.6506 15.108C24.8059 15.5398 25.0388 15.8845 25.3494 16.142C25.6638 16.3958 26.0578 16.5227 26.5312 16.5227ZM38.0099 14.3295V9.27273H40.0668V18H38.0724V16.4489H37.9815C37.7846 16.9375 37.4607 17.3371 37.0099 17.6477C36.563 17.9583 36.0118 18.1136 35.3565 18.1136C34.7846 18.1136 34.2789 17.9867 33.8395 17.733C33.4039 17.4754 33.063 17.1023 32.8168 16.6136C32.5705 16.1212 32.4474 15.5265 32.4474 14.8295V9.27273H34.5043V14.5114C34.5043 15.0644 34.6558 15.5038 34.9588 15.8295C35.2618 16.1553 35.6596 16.3182 36.152 16.3182C36.455 16.3182 36.7486 16.2443 37.0327 16.0966C37.3168 15.9489 37.5497 15.7292 37.7315 15.4375C37.9171 15.142 38.0099 14.7727 38.0099 14.3295ZM46.5398 9.27273V10.8636H41.5227V9.27273H46.5398ZM42.7614 7.18182H44.8182V15.375C44.8182 15.6515 44.8598 15.8636 44.9432 16.0114C45.0303 16.1553 45.1439 16.2538 45.2841 16.3068C45.4242 16.3598 45.5795 16.3864 45.75 16.3864C45.8788 16.3864 45.9962 16.3769 46.1023 16.358C46.2121 16.339 46.2955 16.322 46.3523 16.3068L46.6989 17.9148C46.589 17.9527 46.4318 17.9943 46.2273 18.0398C46.0265 18.0852 45.7803 18.1117 45.4886 18.1193C44.9735 18.1345 44.5095 18.0568 44.0966 17.8864C43.6837 17.7121 43.3561 17.4432 43.1136 17.0795C42.875 16.7159 42.7576 16.2614 42.7614 15.7159V7.18182Z" fill="#403F3D"/>
</svg>
