<svg width="86" height="28" viewBox="0 0 86 28" fill="none" xmlns="http://www.w3.org/2000/svg">
<path d="M1.14773 6.36364H3.72727L7.18182 14.7955H7.31818L10.7727 6.36364H13.3523V18H11.3295V10.0057H11.2216L8.00568 17.9659H6.49432L3.27841 9.98864H3.17045V18H1.14773V6.36364ZM19.3636 18.1705C18.5114 18.1705 17.7727 17.983 17.1477 17.608C16.5227 17.233 16.0379 16.7083 15.6932 16.0341C15.3523 15.3598 15.1818 14.572 15.1818 13.6705C15.1818 12.7689 15.3523 11.9792 15.6932 11.3011C16.0379 10.6231 16.5227 10.0966 17.1477 9.72159C17.7727 9.34659 18.5114 9.15909 19.3636 9.15909C20.2159 9.15909 20.9545 9.34659 21.5795 9.72159C22.2045 10.0966 22.6875 10.6231 23.0284 11.3011C23.3731 11.9792 23.5455 12.7689 23.5455 13.6705C23.5455 14.572 23.3731 15.3598 23.0284 16.0341C22.6875 16.7083 22.2045 17.233 21.5795 17.608C20.9545 17.983 20.2159 18.1705 19.3636 18.1705ZM19.375 16.5227C19.8371 16.5227 20.2235 16.3958 20.5341 16.142C20.8447 15.8845 21.0758 15.5398 21.2273 15.108C21.3826 14.6761 21.4602 14.1951 21.4602 13.6648C21.4602 13.1307 21.3826 12.6477 21.2273 12.2159C21.0758 11.7803 20.8447 11.4337 20.5341 11.1761C20.2235 10.9186 19.8371 10.7898 19.375 10.7898C18.9015 10.7898 18.5076 10.9186 18.1932 11.1761C17.8826 11.4337 17.6496 11.7803 17.4943 12.2159C17.3428 12.6477 17.267 13.1307 17.267 13.6648C17.267 14.1951 17.3428 14.6761 17.4943 15.108C17.6496 15.5398 17.8826 15.8845 18.1932 16.142C18.5076 16.3958 18.9015 16.5227 19.375 16.5227ZM25.3821 18V6.36364H27.4389V10.7159H27.5241C27.6302 10.5038 27.7798 10.2784 27.973 10.0398C28.1662 9.79735 28.4276 9.59091 28.7571 9.42045C29.0866 9.24621 29.5071 9.15909 30.0185 9.15909C30.6927 9.15909 31.3007 9.33144 31.8423 9.67614C32.3878 10.017 32.8196 10.5227 33.1378 11.1932C33.4598 11.8598 33.6207 12.678 33.6207 13.6477C33.6207 14.6061 33.4635 15.4205 33.1491 16.0909C32.8348 16.7614 32.4067 17.2727 31.8651 17.625C31.3234 17.9773 30.7098 18.1534 30.0241 18.1534C29.5241 18.1534 29.1094 18.0701 28.7798 17.9034C28.4503 17.7367 28.1851 17.536 27.9844 17.3011C27.7874 17.0625 27.634 16.8371 27.5241 16.625H27.4048V18H25.3821ZM27.3991 13.6364C27.3991 14.2008 27.4787 14.6951 27.6378 15.1193C27.8007 15.5436 28.0336 15.875 28.3366 16.1136C28.6435 16.3485 29.0147 16.4659 29.4503 16.4659C29.9048 16.4659 30.2855 16.3447 30.5923 16.1023C30.8991 15.8561 31.1302 15.5208 31.2855 15.0966C31.4446 14.6686 31.5241 14.1818 31.5241 13.6364C31.5241 13.0947 31.4465 12.6136 31.2912 12.1932C31.1359 11.7727 30.9048 11.4432 30.598 11.2045C30.2912 10.9659 29.9086 10.8466 29.4503 10.8466C29.0109 10.8466 28.6378 10.9621 28.331 11.1932C28.0241 11.4242 27.7912 11.7481 27.6321 12.1648C27.4768 12.5814 27.3991 13.072 27.3991 13.6364ZM35.3693 18V9.27273H37.4261V18H35.3693ZM36.4034 8.03409C36.0777 8.03409 35.7973 7.92614 35.5625 7.71023C35.3277 7.49053 35.2102 7.22727 35.2102 6.92045C35.2102 6.60985 35.3277 6.34659 35.5625 6.13068C35.7973 5.91098 36.0777 5.80114 36.4034 5.80114C36.733 5.80114 37.0133 5.91098 37.2443 6.13068C37.4792 6.34659 37.5966 6.60985 37.5966 6.92045C37.5966 7.22727 37.4792 7.49053 37.2443 7.71023C37.0133 7.92614 36.733 8.03409 36.4034 8.03409ZM41.598 6.36364V18H39.5412V6.36364H41.598ZM47.5767 18.1705C46.7017 18.1705 45.946 17.9886 45.3097 17.625C44.6771 17.2576 44.1903 16.7386 43.8494 16.0682C43.5085 15.3939 43.3381 14.6004 43.3381 13.6875C43.3381 12.7898 43.5085 12.0019 43.8494 11.3239C44.1941 10.642 44.6752 10.1117 45.2926 9.73295C45.91 9.35038 46.6354 9.15909 47.4688 9.15909C48.0066 9.15909 48.5142 9.24621 48.9915 9.42045C49.4725 9.59091 49.8968 9.85606 50.2642 10.2159C50.6354 10.5758 50.9271 11.0341 51.1392 11.5909C51.3513 12.1439 51.4574 12.803 51.4574 13.5682V14.1989H44.304V12.8125H49.4858C49.482 12.4186 49.3968 12.0682 49.2301 11.7614C49.0634 11.4508 48.8305 11.2064 48.5312 11.0284C48.2358 10.8504 47.8911 10.7614 47.4972 10.7614C47.0767 10.7614 46.7074 10.8636 46.3892 11.0682C46.071 11.2689 45.8229 11.5341 45.6449 11.8636C45.4706 12.1894 45.3816 12.5473 45.3778 12.9375V14.1477C45.3778 14.6553 45.4706 15.0909 45.6562 15.4545C45.8419 15.8144 46.1013 16.0909 46.4347 16.2841C46.768 16.4735 47.1581 16.5682 47.6051 16.5682C47.9044 16.5682 48.1752 16.5265 48.4176 16.4432C48.66 16.3561 48.8703 16.2292 49.0483 16.0625C49.2263 15.8958 49.3608 15.6894 49.4517 15.4432L51.3722 15.6591C51.2509 16.1667 51.0199 16.6098 50.679 16.9886C50.3419 17.3636 49.91 17.6553 49.3835 17.8636C48.857 18.0682 48.2547 18.1705 47.5767 18.1705ZM59.6776 18.1761C59.1245 18.1761 58.6264 18.0777 58.1832 17.8807C57.7438 17.6799 57.3954 17.3845 57.1378 16.9943C56.884 16.6042 56.7571 16.1231 56.7571 15.5511C56.7571 15.0587 56.848 14.6515 57.0298 14.3295C57.2116 14.0076 57.4598 13.75 57.7741 13.5568C58.0885 13.3636 58.4427 13.2178 58.8366 13.1193C59.2344 13.017 59.6454 12.9432 60.0696 12.8977C60.581 12.8447 60.9957 12.7973 61.3139 12.7557C61.6321 12.7102 61.8632 12.642 62.0071 12.5511C62.1548 12.4564 62.2287 12.3106 62.2287 12.1136V12.0795C62.2287 11.6515 62.1018 11.3201 61.848 11.0852C61.5942 10.8504 61.2287 10.733 60.7514 10.733C60.2476 10.733 59.848 10.8428 59.5526 11.0625C59.2609 11.2822 59.0639 11.5417 58.9616 11.8409L57.0412 11.5682C57.1927 11.0379 57.4427 10.5947 57.7912 10.2386C58.1397 9.87879 58.5658 9.60985 59.0696 9.43182C59.5734 9.25 60.1302 9.15909 60.7401 9.15909C61.1605 9.15909 61.5791 9.20833 61.9957 9.30682C62.4124 9.4053 62.7931 9.56818 63.1378 9.79545C63.4825 10.0189 63.759 10.3239 63.9673 10.7102C64.1795 11.0966 64.2855 11.5795 64.2855 12.1591V18H62.3082V16.8011H62.2401C62.1151 17.0436 61.9389 17.2708 61.7116 17.483C61.4882 17.6913 61.206 17.8598 60.8651 17.9886C60.5279 18.1136 60.1321 18.1761 59.6776 18.1761ZM60.2116 16.6648C60.6245 16.6648 60.9825 16.5833 61.2855 16.4205C61.5885 16.2538 61.8215 16.0341 61.9844 15.7614C62.151 15.4886 62.2344 15.1913 62.2344 14.8693V13.8409C62.17 13.8939 62.0601 13.9432 61.9048 13.9886C61.7533 14.0341 61.5829 14.0739 61.3935 14.108C61.2041 14.142 61.0166 14.1723 60.831 14.1989C60.6454 14.2254 60.4844 14.2481 60.348 14.267C60.0412 14.3087 59.7666 14.3769 59.5241 14.4716C59.2817 14.5663 59.0904 14.6989 58.9503 14.8693C58.8101 15.036 58.7401 15.2519 58.7401 15.517C58.7401 15.8958 58.8783 16.1818 59.1548 16.375C59.4313 16.5682 59.7836 16.6648 60.2116 16.6648ZM66.3537 21.2727V9.27273H68.3764V10.7159H68.4957C68.6018 10.5038 68.7514 10.2784 68.9446 10.0398C69.1378 9.79735 69.3991 9.59091 69.7287 9.42045C70.0582 9.24621 70.4787 9.15909 70.9901 9.15909C71.6643 9.15909 72.2723 9.33144 72.8139 9.67614C73.3594 10.017 73.7912 10.5227 74.1094 11.1932C74.4313 11.8598 74.5923 12.678 74.5923 13.6477C74.5923 14.6061 74.4351 15.4205 74.1207 16.0909C73.8063 16.7614 73.3783 17.2727 72.8366 17.625C72.295 17.9773 71.6813 18.1534 70.9957 18.1534C70.4957 18.1534 70.081 18.0701 69.7514 17.9034C69.4219 17.7367 69.1567 17.536 68.956 17.3011C68.759 17.0625 68.6056 16.8371 68.4957 16.625H68.4105V21.2727H66.3537ZM68.3707 13.6364C68.3707 14.2008 68.4503 14.6951 68.6094 15.1193C68.7723 15.5436 69.0052 15.875 69.3082 16.1136C69.6151 16.3485 69.9863 16.4659 70.4219 16.4659C70.8764 16.4659 71.2571 16.3447 71.5639 16.1023C71.8707 15.8561 72.1018 15.5208 72.2571 15.0966C72.4162 14.6686 72.4957 14.1818 72.4957 13.6364C72.4957 13.0947 72.4181 12.6136 72.2628 12.1932C72.1075 11.7727 71.8764 11.4432 71.5696 11.2045C71.2628 10.9659 70.8802 10.8466 70.4219 10.8466C69.9825 10.8466 69.6094 10.9621 69.3026 11.1932C68.9957 11.4242 68.7628 11.7481 68.6037 12.1648C68.4484 12.5814 68.3707 13.072 68.3707 13.6364ZM76.3537 21.2727V9.27273H78.3764V10.7159H78.4957C78.6018 10.5038 78.7514 10.2784 78.9446 10.0398C79.1378 9.79735 79.3991 9.59091 79.7287 9.42045C80.0582 9.24621 80.4787 9.15909 80.9901 9.15909C81.6643 9.15909 82.2723 9.33144 82.8139 9.67614C83.3594 10.017 83.7912 10.5227 84.1094 11.1932C84.4313 11.8598 84.5923 12.678 84.5923 13.6477C84.5923 14.6061 84.4351 15.4205 84.1207 16.0909C83.8063 16.7614 83.3783 17.2727 82.8366 17.625C82.295 17.9773 81.6813 18.1534 80.9957 18.1534C80.4957 18.1534 80.081 18.0701 79.7514 17.9034C79.4219 17.7367 79.1567 17.536 78.956 17.3011C78.759 17.0625 78.6056 16.8371 78.4957 16.625H78.4105V21.2727H76.3537ZM78.3707 13.6364C78.3707 14.2008 78.4503 14.6951 78.6094 15.1193C78.7723 15.5436 79.0052 15.875 79.3082 16.1136C79.6151 16.3485 79.9863 16.4659 80.4219 16.4659C80.8764 16.4659 81.2571 16.3447 81.5639 16.1023C81.8707 15.8561 82.1018 15.5208 82.2571 15.0966C82.4162 14.6686 82.4957 14.1818 82.4957 13.6364C82.4957 13.0947 82.4181 12.6136 82.2628 12.1932C82.1075 11.7727 81.8764 11.4432 81.5696 11.2045C81.2628 10.9659 80.8802 10.8466 80.4219 10.8466C79.9825 10.8466 79.6094 10.9621 79.3026 11.1932C78.9957 11.4242 78.7628 11.7481 78.6037 12.1648C78.4484 12.5814 78.3707 13.072 78.3707 13.6364Z" fill="#403F3D"/>
</svg>
