<svg width="117" height="28" viewBox="0 0 117 28" fill="none" xmlns="http://www.w3.org/2000/svg">
<path d="M1.14773 18V6.36364H8.60227V8.13068H3.25568V11.2898H8.09091V13.0568H3.25568V18H1.14773ZM12.8651 18.1761C12.312 18.1761 11.8139 18.0777 11.3707 17.8807C10.9313 17.6799 10.5829 17.3845 10.3253 16.9943C10.0715 16.6042 9.9446 16.1231 9.9446 15.5511C9.9446 15.0587 10.0355 14.6515 10.2173 14.3295C10.3991 14.0076 10.6473 13.75 10.9616 13.5568C11.276 13.3636 11.6302 13.2178 12.0241 13.1193C12.4219 13.017 12.8329 12.9432 13.2571 12.8977C13.7685 12.8447 14.1832 12.7973 14.5014 12.7557C14.8196 12.7102 15.0507 12.642 15.1946 12.5511C15.3423 12.4564 15.4162 12.3106 15.4162 12.1136V12.0795C15.4162 11.6515 15.2893 11.3201 15.0355 11.0852C14.7817 10.8504 14.4162 10.733 13.9389 10.733C13.4351 10.733 13.0355 10.8428 12.7401 11.0625C12.4484 11.2822 12.2514 11.5417 12.1491 11.8409L10.2287 11.5682C10.3802 11.0379 10.6302 10.5947 10.9787 10.2386C11.3272 9.87879 11.7533 9.60985 12.2571 9.43182C12.7609 9.25 13.3177 9.15909 13.9276 9.15909C14.348 9.15909 14.7666 9.20833 15.1832 9.30682C15.5999 9.4053 15.9806 9.56818 16.3253 9.79545C16.67 10.0189 16.9465 10.3239 17.1548 10.7102C17.367 11.0966 17.473 11.5795 17.473 12.1591V18H15.4957V16.8011H15.4276C15.3026 17.0436 15.1264 17.2708 14.8991 17.483C14.6757 17.6913 14.3935 17.8598 14.0526 17.9886C13.7154 18.1136 13.3196 18.1761 12.8651 18.1761ZM13.3991 16.6648C13.812 16.6648 14.17 16.5833 14.473 16.4205C14.776 16.2538 15.009 16.0341 15.1719 15.7614C15.3385 15.4886 15.4219 15.1913 15.4219 14.8693V13.8409C15.3575 13.8939 15.2476 13.9432 15.0923 13.9886C14.9408 14.0341 14.7704 14.0739 14.581 14.108C14.3916 14.142 14.2041 14.1723 14.0185 14.1989C13.8329 14.2254 13.6719 14.2481 13.5355 14.267C13.2287 14.3087 12.9541 14.3769 12.7116 14.4716C12.4692 14.5663 12.2779 14.6989 12.1378 14.8693C11.9976 15.036 11.9276 15.2519 11.9276 15.517C11.9276 15.8958 12.0658 16.1818 12.3423 16.375C12.6188 16.5682 12.9711 16.6648 13.3991 16.6648ZM27.0241 9.27273L23.9162 18H21.6435L18.5355 9.27273H20.7287L22.7344 15.7557H22.8253L24.8366 9.27273H27.0241ZM31.9574 18.1705C31.1051 18.1705 30.3665 17.983 29.7415 17.608C29.1165 17.233 28.6316 16.7083 28.2869 16.0341C27.946 15.3598 27.7756 14.572 27.7756 13.6705C27.7756 12.7689 27.946 11.9792 28.2869 11.3011C28.6316 10.6231 29.1165 10.0966 29.7415 9.72159C30.3665 9.34659 31.1051 9.15909 31.9574 9.15909C32.8097 9.15909 33.5483 9.34659 34.1733 9.72159C34.7983 10.0966 35.2813 10.6231 35.6222 11.3011C35.9669 11.9792 36.1392 12.7689 36.1392 13.6705C36.1392 14.572 35.9669 15.3598 35.6222 16.0341C35.2813 16.7083 34.7983 17.233 34.1733 17.608C33.5483 17.983 32.8097 18.1705 31.9574 18.1705ZM31.9688 16.5227C32.4309 16.5227 32.8172 16.3958 33.1278 16.142C33.4384 15.8845 33.6695 15.5398 33.821 15.108C33.9763 14.6761 34.054 14.1951 34.054 13.6648C34.054 13.1307 33.9763 12.6477 33.821 12.2159C33.6695 11.7803 33.4384 11.4337 33.1278 11.1761C32.8172 10.9186 32.4309 10.7898 31.9688 10.7898C31.4953 10.7898 31.1013 10.9186 30.7869 11.1761C30.4763 11.4337 30.2434 11.7803 30.0881 12.2159C29.9366 12.6477 29.8608 13.1307 29.8608 13.6648C29.8608 14.1951 29.9366 14.6761 30.0881 15.108C30.2434 15.5398 30.4763 15.8845 30.7869 16.142C31.1013 16.3958 31.4953 16.5227 31.9688 16.5227ZM37.8849 18V9.27273H39.8793V10.7273H39.9702C40.1293 10.2235 40.402 9.83523 40.7884 9.5625C41.1785 9.28598 41.6236 9.14773 42.1236 9.14773C42.2372 9.14773 42.3641 9.15341 42.5043 9.16477C42.6482 9.17235 42.7675 9.18561 42.8622 9.20455V11.0966C42.7751 11.0663 42.6368 11.0398 42.4474 11.017C42.2618 10.9905 42.0819 10.9773 41.9077 10.9773C41.5327 10.9773 41.1955 11.0587 40.8963 11.2216C40.6009 11.3807 40.3679 11.6023 40.1974 11.8864C40.027 12.1705 39.9418 12.4981 39.9418 12.8693V18H37.8849ZM44.2287 18V9.27273H46.2855V18H44.2287ZM45.2628 8.03409C44.937 8.03409 44.6567 7.92614 44.4219 7.71023C44.187 7.49053 44.0696 7.22727 44.0696 6.92045C44.0696 6.60985 44.187 6.34659 44.4219 6.13068C44.6567 5.91098 44.937 5.80114 45.2628 5.80114C45.5923 5.80114 45.8726 5.91098 46.1037 6.13068C46.3385 6.34659 46.456 6.60985 46.456 6.92045C46.456 7.22727 46.3385 7.49053 46.1037 7.71023C45.8726 7.92614 45.5923 8.03409 45.2628 8.03409ZM52.7585 9.27273V10.8636H47.7415V9.27273H52.7585ZM48.9801 7.18182H51.0369V15.375C51.0369 15.6515 51.0786 15.8636 51.1619 16.0114C51.2491 16.1553 51.3627 16.2538 51.5028 16.3068C51.643 16.3598 51.7983 16.3864 51.9688 16.3864C52.0975 16.3864 52.215 16.3769 52.321 16.358C52.4309 16.339 52.5142 16.322 52.571 16.3068L52.9176 17.9148C52.8078 17.9527 52.6506 17.9943 52.446 18.0398C52.2453 18.0852 51.9991 18.1117 51.7074 18.1193C51.1922 18.1345 50.7282 18.0568 50.3153 17.8864C49.9025 17.7121 49.5748 17.4432 49.3324 17.0795C49.0938 16.7159 48.9763 16.2614 48.9801 15.7159V7.18182ZM58.2486 18.1705C57.3736 18.1705 56.6179 17.9886 55.9815 17.625C55.349 17.2576 54.8622 16.7386 54.5213 16.0682C54.1804 15.3939 54.0099 14.6004 54.0099 13.6875C54.0099 12.7898 54.1804 12.0019 54.5213 11.3239C54.866 10.642 55.3471 10.1117 55.9645 9.73295C56.5819 9.35038 57.3073 9.15909 58.1406 9.15909C58.6785 9.15909 59.1861 9.24621 59.6634 9.42045C60.1444 9.59091 60.5687 9.85606 60.9361 10.2159C61.3073 10.5758 61.599 11.0341 61.8111 11.5909C62.0232 12.1439 62.1293 12.803 62.1293 13.5682V14.1989H54.9759V12.8125H60.1577C60.1539 12.4186 60.0687 12.0682 59.902 11.7614C59.7353 11.4508 59.5024 11.2064 59.2031 11.0284C58.9077 10.8504 58.563 10.7614 58.169 10.7614C57.7486 10.7614 57.3793 10.8636 57.0611 11.0682C56.7429 11.2689 56.4948 11.5341 56.3168 11.8636C56.1425 12.1894 56.0535 12.5473 56.0497 12.9375V14.1477C56.0497 14.6553 56.1425 15.0909 56.3281 15.4545C56.5137 15.8144 56.7732 16.0909 57.1065 16.2841C57.4399 16.4735 57.83 16.5682 58.277 16.5682C58.5762 16.5682 58.8471 16.5265 59.0895 16.4432C59.3319 16.3561 59.5421 16.2292 59.7202 16.0625C59.8982 15.8958 60.0327 15.6894 60.1236 15.4432L62.044 15.6591C61.9228 16.1667 61.6918 16.6098 61.3509 16.9886C61.0137 17.3636 60.5819 17.6553 60.0554 17.8636C59.5289 18.0682 58.9266 18.1705 58.2486 18.1705ZM71.6449 18.1705C70.7737 18.1705 70.0256 17.9792 69.4006 17.5966C68.7794 17.214 68.3002 16.6856 67.9631 16.0114C67.6297 15.3333 67.4631 14.553 67.4631 13.6705C67.4631 12.7841 67.6335 12.0019 67.9744 11.3239C68.3153 10.642 68.7964 10.1117 69.4176 9.73295C70.0426 9.35038 70.7813 9.15909 71.6335 9.15909C72.3419 9.15909 72.9688 9.28977 73.5142 9.55114C74.0634 9.80871 74.5009 10.1742 74.8267 10.6477C75.1525 11.1174 75.3381 11.6667 75.3835 12.2955H73.4176C73.3381 11.875 73.1487 11.5246 72.8494 11.2443C72.554 10.9602 72.1581 10.8182 71.6619 10.8182C71.2415 10.8182 70.8722 10.9318 70.554 11.1591C70.2358 11.3826 69.9877 11.7045 69.8097 12.125C69.6354 12.5455 69.5483 13.0492 69.5483 13.6364C69.5483 14.2311 69.6354 14.7424 69.8097 15.1705C69.9839 15.5947 70.2282 15.9223 70.5426 16.1534C70.8608 16.3807 71.2339 16.4943 71.6619 16.4943C71.965 16.4943 72.2358 16.4375 72.4744 16.3239C72.7169 16.2064 72.9195 16.0379 73.0824 15.8182C73.2453 15.5985 73.357 15.3314 73.4176 15.017H75.3835C75.3343 15.6345 75.1525 16.1818 74.8381 16.6591C74.5237 17.1326 74.0956 17.5038 73.554 17.7727C73.0123 18.0379 72.3759 18.1705 71.6449 18.1705ZM80.8793 18.1705C80.027 18.1705 79.2884 17.983 78.6634 17.608C78.0384 17.233 77.5535 16.7083 77.2088 16.0341C76.8679 15.3598 76.6974 14.572 76.6974 13.6705C76.6974 12.7689 76.8679 11.9792 77.2088 11.3011C77.5535 10.6231 78.0384 10.0966 78.6634 9.72159C79.2884 9.34659 80.027 9.15909 80.8793 9.15909C81.7315 9.15909 82.4702 9.34659 83.0952 9.72159C83.7202 10.0966 84.2031 10.6231 84.544 11.3011C84.8887 11.9792 85.0611 12.7689 85.0611 13.6705C85.0611 14.572 84.8887 15.3598 84.544 16.0341C84.2031 16.7083 83.7202 17.233 83.0952 17.608C82.4702 17.983 81.7315 18.1705 80.8793 18.1705ZM80.8906 16.5227C81.3527 16.5227 81.7391 16.3958 82.0497 16.142C82.3603 15.8845 82.5914 15.5398 82.7429 15.108C82.8982 14.6761 82.9759 14.1951 82.9759 13.6648C82.9759 13.1307 82.8982 12.6477 82.7429 12.2159C82.5914 11.7803 82.3603 11.4337 82.0497 11.1761C81.7391 10.9186 81.3527 10.7898 80.8906 10.7898C80.4171 10.7898 80.0232 10.9186 79.7088 11.1761C79.3982 11.4337 79.1652 11.7803 79.0099 12.2159C78.8584 12.6477 78.7827 13.1307 78.7827 13.6648C78.7827 14.1951 78.8584 14.6761 79.0099 15.108C79.1652 15.5398 79.3982 15.8845 79.7088 16.142C80.0232 16.3958 80.4171 16.5227 80.8906 16.5227ZM91.2273 9.27273V10.8636H86.0682V9.27273H91.2273ZM87.358 18V8.44886C87.358 7.86174 87.4792 7.37311 87.7216 6.98295C87.9678 6.5928 88.2973 6.30114 88.7102 6.10795C89.1231 5.91477 89.5814 5.81818 90.0852 5.81818C90.4413 5.81818 90.7576 5.84659 91.0341 5.90341C91.3106 5.96023 91.5152 6.01136 91.6477 6.05682L91.2386 7.64773C91.1515 7.62121 91.0417 7.5947 90.9091 7.56818C90.7765 7.53788 90.6288 7.52273 90.4659 7.52273C90.0833 7.52273 89.8125 7.61553 89.6534 7.80114C89.4981 7.98295 89.4205 8.24432 89.4205 8.58523V18H87.358ZM97.2585 9.27273V10.8636H92.0994V9.27273H97.2585ZM93.3892 18V8.44886C93.3892 7.86174 93.5104 7.37311 93.7528 6.98295C93.9991 6.5928 94.3286 6.30114 94.7415 6.10795C95.1544 5.91477 95.6127 5.81818 96.1165 5.81818C96.4725 5.81818 96.7888 5.84659 97.0653 5.90341C97.3419 5.96023 97.5464 6.01136 97.679 6.05682L97.2699 7.64773C97.1828 7.62121 97.0729 7.5947 96.9403 7.56818C96.8078 7.53788 96.66 7.52273 96.4972 7.52273C96.1146 7.52273 95.8438 7.61553 95.6847 7.80114C95.5294 7.98295 95.4517 8.24432 95.4517 8.58523V18H93.3892ZM102.405 18.1705C101.53 18.1705 100.774 17.9886 100.138 17.625C99.5052 17.2576 99.0185 16.7386 98.6776 16.0682C98.3366 15.3939 98.1662 14.6004 98.1662 13.6875C98.1662 12.7898 98.3366 12.0019 98.6776 11.3239C99.0223 10.642 99.5033 10.1117 100.121 9.73295C100.738 9.35038 101.464 9.15909 102.297 9.15909C102.835 9.15909 103.342 9.24621 103.82 9.42045C104.301 9.59091 104.725 9.85606 105.092 10.2159C105.464 10.5758 105.755 11.0341 105.967 11.5909C106.179 12.1439 106.286 12.803 106.286 13.5682V14.1989H99.1321V12.8125H104.314C104.31 12.4186 104.225 12.0682 104.058 11.7614C103.892 11.4508 103.659 11.2064 103.359 11.0284C103.064 10.8504 102.719 10.7614 102.325 10.7614C101.905 10.7614 101.536 10.8636 101.217 11.0682C100.899 11.2689 100.651 11.5341 100.473 11.8636C100.299 12.1894 100.21 12.5473 100.206 12.9375V14.1477C100.206 14.6553 100.299 15.0909 100.484 15.4545C100.67 15.8144 100.929 16.0909 101.263 16.2841C101.596 16.4735 101.986 16.5682 102.433 16.5682C102.732 16.5682 103.003 16.5265 103.246 16.4432C103.488 16.3561 103.698 16.2292 103.876 16.0625C104.054 15.8958 104.189 15.6894 104.28 15.4432L106.2 15.6591C106.079 16.1667 105.848 16.6098 105.507 16.9886C105.17 17.3636 104.738 17.6553 104.212 17.8636C103.685 18.0682 103.083 18.1705 102.405 18.1705ZM111.889 18.1705C111.014 18.1705 110.259 17.9886 109.622 17.625C108.99 17.2576 108.503 16.7386 108.162 16.0682C107.821 15.3939 107.651 14.6004 107.651 13.6875C107.651 12.7898 107.821 12.0019 108.162 11.3239C108.507 10.642 108.988 10.1117 109.605 9.73295C110.223 9.35038 110.948 9.15909 111.781 9.15909C112.319 9.15909 112.827 9.24621 113.304 9.42045C113.785 9.59091 114.209 9.85606 114.577 10.2159C114.948 10.5758 115.24 11.0341 115.452 11.5909C115.664 12.1439 115.77 12.803 115.77 13.5682V14.1989H108.616V12.8125H113.798C113.795 12.4186 113.709 12.0682 113.543 11.7614C113.376 11.4508 113.143 11.2064 112.844 11.0284C112.548 10.8504 112.204 10.7614 111.81 10.7614C111.389 10.7614 111.02 10.8636 110.702 11.0682C110.384 11.2689 110.135 11.5341 109.957 11.8636C109.783 12.1894 109.694 12.5473 109.69 12.9375V14.1477C109.69 14.6553 109.783 15.0909 109.969 15.4545C110.154 15.8144 110.414 16.0909 110.747 16.2841C111.08 16.4735 111.471 16.5682 111.918 16.5682C112.217 16.5682 112.488 16.5265 112.73 16.4432C112.973 16.3561 113.183 16.2292 113.361 16.0625C113.539 15.8958 113.673 15.6894 113.764 15.4432L115.685 15.6591C115.563 16.1667 115.332 16.6098 114.991 16.9886C114.654 17.3636 114.223 17.6553 113.696 17.8636C113.17 18.0682 112.567 18.1705 111.889 18.1705Z" fill="#403F3D"/>
</svg>
