<svg width="85" height="28" viewBox="0 0 85 28" fill="none" xmlns="http://www.w3.org/2000/svg">
<path d="M11.108 10.2898H8.98295C8.92235 9.94129 8.81061 9.63258 8.64773 9.36364C8.48485 9.09091 8.2822 8.85985 8.03977 8.67045C7.79735 8.48106 7.52083 8.33901 7.21023 8.24432C6.90341 8.14583 6.57197 8.09659 6.21591 8.09659C5.58333 8.09659 5.02273 8.25568 4.53409 8.57386C4.04545 8.88826 3.66288 9.35038 3.38636 9.96023C3.10985 10.5663 2.97159 11.3068 2.97159 12.1818C2.97159 13.072 3.10985 13.822 3.38636 14.4318C3.66667 15.0379 4.04924 15.4962 4.53409 15.8068C5.02273 16.1136 5.58144 16.267 6.21023 16.267C6.55871 16.267 6.88447 16.2216 7.1875 16.1307C7.49432 16.036 7.76894 15.8977 8.01136 15.7159C8.25758 15.5341 8.46402 15.3106 8.63068 15.0455C8.80114 14.7803 8.91856 14.4773 8.98295 14.1364L11.108 14.1477C11.0284 14.7008 10.8561 15.2197 10.5909 15.7045C10.3295 16.1894 9.98674 16.6174 9.5625 16.9886C9.13826 17.3561 8.64205 17.6439 8.07386 17.8523C7.50568 18.0568 6.875 18.1591 6.18182 18.1591C5.15909 18.1591 4.24621 17.9223 3.44318 17.4489C2.64015 16.9754 2.00758 16.2917 1.54545 15.3977C1.08333 14.5038 0.852273 13.4318 0.852273 12.1818C0.852273 10.928 1.08523 9.85606 1.55114 8.96591C2.01705 8.07197 2.65152 7.38826 3.45455 6.91477C4.25758 6.44129 5.16667 6.20455 6.18182 6.20455C6.82955 6.20455 7.43182 6.29545 7.98864 6.47727C8.54545 6.65909 9.04167 6.92614 9.47727 7.27841C9.91288 7.62689 10.2708 8.05492 10.5511 8.5625C10.8352 9.06629 11.0208 9.64205 11.108 10.2898ZM16.7543 18.1705C15.902 18.1705 15.1634 17.983 14.5384 17.608C13.9134 17.233 13.4285 16.7083 13.0838 16.0341C12.7429 15.3598 12.5724 14.572 12.5724 13.6705C12.5724 12.7689 12.7429 11.9792 13.0838 11.3011C13.4285 10.6231 13.9134 10.0966 14.5384 9.72159C15.1634 9.34659 15.902 9.15909 16.7543 9.15909C17.6065 9.15909 18.3452 9.34659 18.9702 9.72159C19.5952 10.0966 20.0781 10.6231 20.419 11.3011C20.7637 11.9792 20.9361 12.7689 20.9361 13.6705C20.9361 14.572 20.7637 15.3598 20.419 16.0341C20.0781 16.7083 19.5952 17.233 18.9702 17.608C18.3452 17.983 17.6065 18.1705 16.7543 18.1705ZM16.7656 16.5227C17.2277 16.5227 17.6141 16.3958 17.9247 16.142C18.2353 15.8845 18.4664 15.5398 18.6179 15.108C18.7732 14.6761 18.8509 14.1951 18.8509 13.6648C18.8509 13.1307 18.7732 12.6477 18.6179 12.2159C18.4664 11.7803 18.2353 11.4337 17.9247 11.1761C17.6141 10.9186 17.2277 10.7898 16.7656 10.7898C16.2921 10.7898 15.8982 10.9186 15.5838 11.1761C15.2732 11.4337 15.0402 11.7803 14.8849 12.2159C14.7334 12.6477 14.6577 13.1307 14.6577 13.6648C14.6577 14.1951 14.7334 14.6761 14.8849 15.108C15.0402 15.5398 15.2732 15.8845 15.5838 16.142C15.8982 16.3958 16.2921 16.5227 16.7656 16.5227ZM24.7386 12.8864V18H22.6818V9.27273H24.6477V10.7557H24.75C24.9508 10.267 25.2708 9.87879 25.7102 9.59091C26.1534 9.30303 26.7008 9.15909 27.3523 9.15909C27.9545 9.15909 28.4792 9.28788 28.9261 9.54545C29.3769 9.80303 29.7254 10.1761 29.9716 10.6648C30.2216 11.1534 30.3447 11.7462 30.3409 12.4432V18H28.2841V12.7614C28.2841 12.178 28.1326 11.7216 27.8295 11.392C27.5303 11.0625 27.1155 10.8977 26.5852 10.8977C26.2254 10.8977 25.9053 10.9773 25.625 11.1364C25.3485 11.2917 25.1307 11.517 24.9716 11.8125C24.8163 12.108 24.7386 12.4659 24.7386 12.8864ZM36.7898 9.27273V10.8636H31.7727V9.27273H36.7898ZM33.0114 7.18182H35.0682V15.375C35.0682 15.6515 35.1098 15.8636 35.1932 16.0114C35.2803 16.1553 35.3939 16.2538 35.5341 16.3068C35.6742 16.3598 35.8295 16.3864 36 16.3864C36.1288 16.3864 36.2462 16.3769 36.3523 16.358C36.4621 16.339 36.5455 16.322 36.6023 16.3068L36.9489 17.9148C36.839 17.9527 36.6818 17.9943 36.4773 18.0398C36.2765 18.0852 36.0303 18.1117 35.7386 18.1193C35.2235 18.1345 34.7595 18.0568 34.3466 17.8864C33.9337 17.7121 33.6061 17.4432 33.3636 17.0795C33.125 16.7159 33.0076 16.2614 33.0114 15.7159V7.18182ZM41.0213 18.1761C40.4683 18.1761 39.9702 18.0777 39.527 17.8807C39.0876 17.6799 38.7391 17.3845 38.4815 16.9943C38.2277 16.6042 38.1009 16.1231 38.1009 15.5511C38.1009 15.0587 38.1918 14.6515 38.3736 14.3295C38.5554 14.0076 38.8035 13.75 39.1179 13.5568C39.4323 13.3636 39.7865 13.2178 40.1804 13.1193C40.5781 13.017 40.9891 12.9432 41.4134 12.8977C41.9247 12.8447 42.3395 12.7973 42.6577 12.7557C42.9759 12.7102 43.2069 12.642 43.3509 12.5511C43.4986 12.4564 43.5724 12.3106 43.5724 12.1136V12.0795C43.5724 11.6515 43.4455 11.3201 43.1918 11.0852C42.938 10.8504 42.5724 10.733 42.0952 10.733C41.5914 10.733 41.1918 10.8428 40.8963 11.0625C40.6046 11.2822 40.4077 11.5417 40.3054 11.8409L38.3849 11.5682C38.5365 11.0379 38.7865 10.5947 39.1349 10.2386C39.4834 9.87879 39.9096 9.60985 40.4134 9.43182C40.9171 9.25 41.474 9.15909 42.0838 9.15909C42.5043 9.15909 42.9228 9.20833 43.3395 9.30682C43.7562 9.4053 44.1368 9.56818 44.4815 9.79545C44.8262 10.0189 45.1027 10.3239 45.3111 10.7102C45.5232 11.0966 45.6293 11.5795 45.6293 12.1591V18H43.652V16.8011H43.5838C43.4588 17.0436 43.2827 17.2708 43.0554 17.483C42.8319 17.6913 42.5497 17.8598 42.2088 17.9886C41.8717 18.1136 41.4759 18.1761 41.0213 18.1761ZM41.5554 16.6648C41.9683 16.6648 42.3262 16.5833 42.6293 16.4205C42.9323 16.2538 43.1652 16.0341 43.3281 15.7614C43.4948 15.4886 43.5781 15.1913 43.5781 14.8693V13.8409C43.5137 13.8939 43.4039 13.9432 43.2486 13.9886C43.0971 14.0341 42.9266 14.0739 42.7372 14.108C42.5478 14.142 42.3603 14.1723 42.1747 14.1989C41.9891 14.2254 41.8281 14.2481 41.6918 14.267C41.3849 14.3087 41.1103 14.3769 40.8679 14.4716C40.6255 14.5663 40.4342 14.6989 40.294 14.8693C40.1539 15.036 40.0838 15.2519 40.0838 15.517C40.0838 15.8958 40.2221 16.1818 40.4986 16.375C40.7751 16.5682 41.1274 16.6648 41.5554 16.6648ZM51.5043 18.1705C50.633 18.1705 49.8849 17.9792 49.2599 17.5966C48.6387 17.214 48.1596 16.6856 47.8224 16.0114C47.4891 15.3333 47.3224 14.553 47.3224 13.6705C47.3224 12.7841 47.4929 12.0019 47.8338 11.3239C48.1747 10.642 48.6558 10.1117 49.277 9.73295C49.902 9.35038 50.6406 9.15909 51.4929 9.15909C52.2012 9.15909 52.8281 9.28977 53.3736 9.55114C53.9228 9.80871 54.3603 10.1742 54.6861 10.6477C55.0118 11.1174 55.1974 11.6667 55.2429 12.2955H53.277C53.1974 11.875 53.008 11.5246 52.7088 11.2443C52.4134 10.9602 52.0175 10.8182 51.5213 10.8182C51.1009 10.8182 50.7315 10.9318 50.4134 11.1591C50.0952 11.3826 49.8471 11.7045 49.669 12.125C49.4948 12.5455 49.4077 13.0492 49.4077 13.6364C49.4077 14.2311 49.4948 14.7424 49.669 15.1705C49.8433 15.5947 50.0876 15.9223 50.402 16.1534C50.7202 16.3807 51.0933 16.4943 51.5213 16.4943C51.8243 16.4943 52.0952 16.4375 52.3338 16.3239C52.5762 16.2064 52.7789 16.0379 52.9418 15.8182C53.1046 15.5985 53.2164 15.3314 53.277 15.017H55.2429C55.1937 15.6345 55.0118 16.1818 54.6974 16.6591C54.383 17.1326 53.955 17.5038 53.4134 17.7727C52.8717 18.0379 52.2353 18.1705 51.5043 18.1705ZM61.2898 9.27273V10.8636H56.2727V9.27273H61.2898ZM57.5114 7.18182H59.5682V15.375C59.5682 15.6515 59.6098 15.8636 59.6932 16.0114C59.7803 16.1553 59.8939 16.2538 60.0341 16.3068C60.1742 16.3598 60.3295 16.3864 60.5 16.3864C60.6288 16.3864 60.7462 16.3769 60.8523 16.358C60.9621 16.339 61.0455 16.322 61.1023 16.3068L61.4489 17.9148C61.339 17.9527 61.1818 17.9943 60.9773 18.0398C60.7765 18.0852 60.5303 18.1117 60.2386 18.1193C59.7235 18.1345 59.2595 18.0568 58.8466 17.8864C58.4337 17.7121 58.1061 17.4432 57.8636 17.0795C57.625 16.7159 57.5076 16.2614 57.5114 15.7159V7.18182ZM72.5412 14.3295V9.27273H74.598V18H72.6037V16.4489H72.5128C72.3158 16.9375 71.992 17.3371 71.5412 17.6477C71.0942 17.9583 70.5431 18.1136 69.8878 18.1136C69.3158 18.1136 68.8101 17.9867 68.3707 17.733C67.9351 17.4754 67.5942 17.1023 67.348 16.6136C67.1018 16.1212 66.9787 15.5265 66.9787 14.8295V9.27273H69.0355V14.5114C69.0355 15.0644 69.187 15.5038 69.4901 15.8295C69.7931 16.1553 70.1908 16.3182 70.6832 16.3182C70.9863 16.3182 71.2798 16.2443 71.5639 16.0966C71.848 15.9489 72.081 15.7292 72.2628 15.4375C72.4484 15.142 72.5412 14.7727 72.5412 14.3295ZM83.6108 11.5795L81.7358 11.7841C81.6828 11.5947 81.59 11.4167 81.4574 11.25C81.3286 11.0833 81.1544 10.9489 80.9347 10.8466C80.715 10.7443 80.446 10.6932 80.1278 10.6932C79.6998 10.6932 79.34 10.786 79.0483 10.9716C78.7604 11.1572 78.6184 11.3977 78.6222 11.6932C78.6184 11.947 78.7112 12.1534 78.9006 12.3125C79.0938 12.4716 79.4119 12.6023 79.8551 12.7045L81.3438 13.0227C82.1695 13.2008 82.7831 13.483 83.1847 13.8693C83.59 14.2557 83.7945 14.7614 83.7983 15.3864C83.7945 15.9356 83.6335 16.4205 83.3153 16.8409C83.0009 17.2576 82.5634 17.5833 82.0028 17.8182C81.4422 18.053 80.7983 18.1705 80.071 18.1705C79.0028 18.1705 78.143 17.947 77.4915 17.5C76.84 17.0492 76.4517 16.4223 76.3267 15.6193L78.3324 15.4261C78.4233 15.8201 78.6165 16.1174 78.9119 16.3182C79.2074 16.5189 79.5919 16.6193 80.0653 16.6193C80.554 16.6193 80.946 16.5189 81.2415 16.3182C81.5407 16.1174 81.6903 15.8693 81.6903 15.5739C81.6903 15.3239 81.5938 15.1174 81.4006 14.9545C81.2112 14.7917 80.9157 14.6667 80.5142 14.5795L79.0256 14.267C78.1884 14.0928 77.5691 13.7992 77.1676 13.3864C76.7661 12.9697 76.5672 12.4432 76.571 11.8068C76.5672 11.2689 76.7131 10.803 77.0085 10.4091C77.3078 10.0114 77.7225 9.70455 78.2528 9.48864C78.7869 9.26894 79.4025 9.15909 80.0994 9.15909C81.1222 9.15909 81.9271 9.37689 82.5142 9.8125C83.1051 10.2481 83.4706 10.8371 83.6108 11.5795Z" fill="#403F3D"/>
</svg>
