<svg width="1188" height="60" viewBox="0 0 1188 60" fill="none" xmlns="http://www.w3.org/2000/svg">
<path d="M367.148 34V22.3636H374.602V24.1307H369.256V27.2898H374.091V29.0568H369.256V34H367.148ZM378.865 34.1761C378.312 34.1761 377.814 34.0777 377.371 33.8807C376.931 33.6799 376.583 33.3845 376.325 32.9943C376.071 32.6042 375.945 32.1231 375.945 31.5511C375.945 31.0587 376.036 30.6515 376.217 30.3295C376.399 30.0076 376.647 29.75 376.962 29.5568C377.276 29.3636 377.63 29.2178 378.024 29.1193C378.422 29.017 378.833 28.9432 379.257 28.8977C379.768 28.8447 380.183 28.7973 380.501 28.7557C380.82 28.7102 381.051 28.642 381.195 28.5511C381.342 28.4564 381.416 28.3106 381.416 28.1136V28.0795C381.416 27.6515 381.289 27.3201 381.036 27.0852C380.782 26.8504 380.416 26.733 379.939 26.733C379.435 26.733 379.036 26.8428 378.74 27.0625C378.448 27.2822 378.251 27.5417 378.149 27.8409L376.229 27.5682C376.38 27.0379 376.63 26.5947 376.979 26.2386C377.327 25.8788 377.753 25.6098 378.257 25.4318C378.761 25.25 379.318 25.1591 379.928 25.1591C380.348 25.1591 380.767 25.2083 381.183 25.3068C381.6 25.4053 381.981 25.5682 382.325 25.7955C382.67 26.0189 382.946 26.3239 383.155 26.7102C383.367 27.0966 383.473 27.5795 383.473 28.1591V34H381.496V32.8011H381.428C381.303 33.0436 381.126 33.2708 380.899 33.483C380.676 33.6913 380.393 33.8598 380.053 33.9886C379.715 34.1136 379.32 34.1761 378.865 34.1761ZM379.399 32.6648C379.812 32.6648 380.17 32.5833 380.473 32.4205C380.776 32.2538 381.009 32.0341 381.172 31.7614C381.339 31.4886 381.422 31.1913 381.422 30.8693V29.8409C381.357 29.8939 381.248 29.9432 381.092 29.9886C380.941 30.0341 380.77 30.0739 380.581 30.108C380.392 30.142 380.204 30.1723 380.018 30.1989C379.833 30.2254 379.672 30.2481 379.536 30.267C379.229 30.3087 378.954 30.3769 378.712 30.4716C378.469 30.5663 378.278 30.6989 378.138 30.8693C377.998 31.036 377.928 31.2519 377.928 31.517C377.928 31.8958 378.066 32.1818 378.342 32.375C378.619 32.5682 378.971 32.6648 379.399 32.6648ZM393.024 25.2727L389.916 34H387.643L384.536 25.2727H386.729L388.734 31.7557H388.825L390.837 25.2727H393.024ZM397.957 34.1705C397.105 34.1705 396.366 33.983 395.741 33.608C395.116 33.233 394.632 32.7083 394.287 32.0341C393.946 31.3598 393.776 30.572 393.776 29.6705C393.776 28.7689 393.946 27.9792 394.287 27.3011C394.632 26.6231 395.116 26.0966 395.741 25.7216C396.366 25.3466 397.105 25.1591 397.957 25.1591C398.81 25.1591 399.548 25.3466 400.173 25.7216C400.798 26.0966 401.281 26.6231 401.622 27.3011C401.967 27.9792 402.139 28.7689 402.139 29.6705C402.139 30.572 401.967 31.3598 401.622 32.0341C401.281 32.7083 400.798 33.233 400.173 33.608C399.548 33.983 398.81 34.1705 397.957 34.1705ZM397.969 32.5227C398.431 32.5227 398.817 32.3958 399.128 32.142C399.438 31.8845 399.67 31.5398 399.821 31.108C399.976 30.6761 400.054 30.1951 400.054 29.6648C400.054 29.1307 399.976 28.6477 399.821 28.2159C399.67 27.7803 399.438 27.4337 399.128 27.1761C398.817 26.9186 398.431 26.7898 397.969 26.7898C397.495 26.7898 397.101 26.9186 396.787 27.1761C396.476 27.4337 396.243 27.7803 396.088 28.2159C395.937 28.6477 395.861 29.1307 395.861 29.6648C395.861 30.1951 395.937 30.6761 396.088 31.108C396.243 31.5398 396.476 31.8845 396.787 32.142C397.101 32.3958 397.495 32.5227 397.969 32.5227ZM403.885 34V25.2727H405.879V26.7273H405.97C406.129 26.2235 406.402 25.8352 406.788 25.5625C407.179 25.286 407.624 25.1477 408.124 25.1477C408.237 25.1477 408.364 25.1534 408.504 25.1648C408.648 25.1723 408.768 25.1856 408.862 25.2045V27.0966C408.775 27.0663 408.637 27.0398 408.447 27.017C408.262 26.9905 408.082 26.9773 407.908 26.9773C407.533 26.9773 407.196 27.0587 406.896 27.2216C406.601 27.3807 406.368 27.6023 406.197 27.8864C406.027 28.1705 405.942 28.4981 405.942 28.8693V34H403.885ZM410.229 34V25.2727H412.286V34H410.229ZM411.263 24.0341C410.937 24.0341 410.657 23.9261 410.422 23.7102C410.187 23.4905 410.07 23.2273 410.07 22.9205C410.07 22.6098 410.187 22.3466 410.422 22.1307C410.657 21.911 410.937 21.8011 411.263 21.8011C411.592 21.8011 411.873 21.911 412.104 22.1307C412.339 22.3466 412.456 22.6098 412.456 22.9205C412.456 23.2273 412.339 23.4905 412.104 23.7102C411.873 23.9261 411.592 24.0341 411.263 24.0341ZM418.759 25.2727V26.8636H413.741V25.2727H418.759ZM414.98 23.1818H417.037V31.375C417.037 31.6515 417.079 31.8636 417.162 32.0114C417.249 32.1553 417.363 32.2538 417.503 32.3068C417.643 32.3598 417.798 32.3864 417.969 32.3864C418.098 32.3864 418.215 32.3769 418.321 32.358C418.431 32.339 418.514 32.322 418.571 32.3068L418.918 33.9148C418.808 33.9527 418.651 33.9943 418.446 34.0398C418.245 34.0852 417.999 34.1117 417.707 34.1193C417.192 34.1345 416.728 34.0568 416.315 33.8864C415.902 33.7121 415.575 33.4432 415.332 33.0795C415.094 32.7159 414.976 32.2614 414.98 31.7159V23.1818ZM424.249 34.1705C423.374 34.1705 422.618 33.9886 421.982 33.625C421.349 33.2576 420.862 32.7386 420.521 32.0682C420.18 31.3939 420.01 30.6004 420.01 29.6875C420.01 28.7898 420.18 28.0019 420.521 27.3239C420.866 26.642 421.347 26.1117 421.964 25.733C422.582 25.3504 423.307 25.1591 424.141 25.1591C424.679 25.1591 425.186 25.2462 425.663 25.4205C426.144 25.5909 426.569 25.8561 426.936 26.2159C427.307 26.5758 427.599 27.0341 427.811 27.5909C428.023 28.1439 428.129 28.803 428.129 29.5682V30.1989H420.976V28.8125H426.158C426.154 28.4186 426.069 28.0682 425.902 27.7614C425.735 27.4508 425.502 27.2064 425.203 27.0284C424.908 26.8504 424.563 26.7614 424.169 26.7614C423.749 26.7614 423.379 26.8636 423.061 27.0682C422.743 27.2689 422.495 27.5341 422.317 27.8636C422.143 28.1894 422.054 28.5473 422.05 28.9375V30.1477C422.05 30.6553 422.143 31.0909 422.328 31.4545C422.514 31.8144 422.773 32.0909 423.107 32.2841C423.44 32.4735 423.83 32.5682 424.277 32.5682C424.576 32.5682 424.847 32.5265 425.089 32.4432C425.332 32.3561 425.542 32.2292 425.72 32.0625C425.898 31.8958 426.033 31.6894 426.124 31.4432L428.044 31.6591C427.923 32.1667 427.692 32.6098 427.351 32.9886C427.014 33.3636 426.582 33.6553 426.055 33.8636C425.529 34.0682 424.927 34.1705 424.249 34.1705ZM437.645 34.1705C436.774 34.1705 436.026 33.9792 435.401 33.5966C434.779 33.214 434.3 32.6856 433.963 32.0114C433.63 31.3333 433.463 30.553 433.463 29.6705C433.463 28.7841 433.634 28.0019 433.974 27.3239C434.315 26.642 434.796 26.1117 435.418 25.733C436.043 25.3504 436.781 25.1591 437.634 25.1591C438.342 25.1591 438.969 25.2898 439.514 25.5511C440.063 25.8087 440.501 26.1742 440.827 26.6477C441.152 27.1174 441.338 27.6667 441.384 28.2955H439.418C439.338 27.875 439.149 27.5246 438.849 27.2443C438.554 26.9602 438.158 26.8182 437.662 26.8182C437.241 26.8182 436.872 26.9318 436.554 27.1591C436.236 27.3826 435.988 27.7045 435.81 28.125C435.635 28.5455 435.548 29.0492 435.548 29.6364C435.548 30.2311 435.635 30.7424 435.81 31.1705C435.984 31.5947 436.228 31.9223 436.543 32.1534C436.861 32.3807 437.234 32.4943 437.662 32.4943C437.965 32.4943 438.236 32.4375 438.474 32.3239C438.717 32.2064 438.92 32.0379 439.082 31.8182C439.245 31.5985 439.357 31.3314 439.418 31.017H441.384C441.334 31.6345 441.152 32.1818 440.838 32.6591C440.524 33.1326 440.096 33.5038 439.554 33.7727C439.012 34.0379 438.376 34.1705 437.645 34.1705ZM446.879 34.1705C446.027 34.1705 445.288 33.983 444.663 33.608C444.038 33.233 443.554 32.7083 443.209 32.0341C442.868 31.3598 442.697 30.572 442.697 29.6705C442.697 28.7689 442.868 27.9792 443.209 27.3011C443.554 26.6231 444.038 26.0966 444.663 25.7216C445.288 25.3466 446.027 25.1591 446.879 25.1591C447.732 25.1591 448.47 25.3466 449.095 25.7216C449.72 26.0966 450.203 26.6231 450.544 27.3011C450.889 27.9792 451.061 28.7689 451.061 29.6705C451.061 30.572 450.889 31.3598 450.544 32.0341C450.203 32.7083 449.72 33.233 449.095 33.608C448.47 33.983 447.732 34.1705 446.879 34.1705ZM446.891 32.5227C447.353 32.5227 447.739 32.3958 448.05 32.142C448.36 31.8845 448.591 31.5398 448.743 31.108C448.898 30.6761 448.976 30.1951 448.976 29.6648C448.976 29.1307 448.898 28.6477 448.743 28.2159C448.591 27.7803 448.36 27.4337 448.05 27.1761C447.739 26.9186 447.353 26.7898 446.891 26.7898C446.417 26.7898 446.023 26.9186 445.709 27.1761C445.398 27.4337 445.165 27.7803 445.01 28.2159C444.858 28.6477 444.783 29.1307 444.783 29.6648C444.783 30.1951 444.858 30.6761 445.01 31.108C445.165 31.5398 445.398 31.8845 445.709 32.142C446.023 32.3958 446.417 32.5227 446.891 32.5227ZM457.227 25.2727V26.8636H452.068V25.2727H457.227ZM453.358 34V24.4489C453.358 23.8617 453.479 23.3731 453.722 22.983C453.968 22.5928 454.297 22.3011 454.71 22.108C455.123 21.9148 455.581 21.8182 456.085 21.8182C456.441 21.8182 456.758 21.8466 457.034 21.9034C457.311 21.9602 457.515 22.0114 457.648 22.0568L457.239 23.6477C457.152 23.6212 457.042 23.5947 456.909 23.5682C456.777 23.5379 456.629 23.5227 456.466 23.5227C456.083 23.5227 455.813 23.6155 455.653 23.8011C455.498 23.983 455.42 24.2443 455.42 24.5852V34H453.358ZM463.259 25.2727V26.8636H458.099V25.2727H463.259ZM459.389 34V24.4489C459.389 23.8617 459.51 23.3731 459.753 22.983C459.999 22.5928 460.329 22.3011 460.741 22.108C461.154 21.9148 461.613 21.8182 462.116 21.8182C462.473 21.8182 462.789 21.8466 463.065 21.9034C463.342 21.9602 463.546 22.0114 463.679 22.0568L463.27 23.6477C463.183 23.6212 463.073 23.5947 462.94 23.5682C462.808 23.5379 462.66 23.5227 462.497 23.5227C462.115 23.5227 461.844 23.6155 461.685 23.8011C461.529 23.983 461.452 24.2443 461.452 24.5852V34H459.389ZM468.405 34.1705C467.53 34.1705 466.774 33.9886 466.138 33.625C465.505 33.2576 465.018 32.7386 464.678 32.0682C464.337 31.3939 464.166 30.6004 464.166 29.6875C464.166 28.7898 464.337 28.0019 464.678 27.3239C465.022 26.642 465.503 26.1117 466.121 25.733C466.738 25.3504 467.464 25.1591 468.297 25.1591C468.835 25.1591 469.342 25.2462 469.82 25.4205C470.301 25.5909 470.725 25.8561 471.092 26.2159C471.464 26.5758 471.755 27.0341 471.967 27.5909C472.179 28.1439 472.286 28.803 472.286 29.5682V30.1989H465.132V28.8125H470.314C470.31 28.4186 470.225 28.0682 470.058 27.7614C469.892 27.4508 469.659 27.2064 469.359 27.0284C469.064 26.8504 468.719 26.7614 468.325 26.7614C467.905 26.7614 467.536 26.8636 467.217 27.0682C466.899 27.2689 466.651 27.5341 466.473 27.8636C466.299 28.1894 466.21 28.5473 466.206 28.9375V30.1477C466.206 30.6553 466.299 31.0909 466.484 31.4545C466.67 31.8144 466.929 32.0909 467.263 32.2841C467.596 32.4735 467.986 32.5682 468.433 32.5682C468.732 32.5682 469.003 32.5265 469.246 32.4432C469.488 32.3561 469.698 32.2292 469.876 32.0625C470.054 31.8958 470.189 31.6894 470.28 31.4432L472.2 31.6591C472.079 32.1667 471.848 32.6098 471.507 32.9886C471.17 33.3636 470.738 33.6553 470.212 33.8636C469.685 34.0682 469.083 34.1705 468.405 34.1705ZM477.889 34.1705C477.014 34.1705 476.259 33.9886 475.622 33.625C474.99 33.2576 474.503 32.7386 474.162 32.0682C473.821 31.3939 473.651 30.6004 473.651 29.6875C473.651 28.7898 473.821 28.0019 474.162 27.3239C474.507 26.642 474.988 26.1117 475.605 25.733C476.223 25.3504 476.948 25.1591 477.781 25.1591C478.319 25.1591 478.827 25.2462 479.304 25.4205C479.785 25.5909 480.209 25.8561 480.577 26.2159C480.948 26.5758 481.24 27.0341 481.452 27.5909C481.664 28.1439 481.77 28.803 481.77 29.5682V30.1989H474.616V28.8125H479.798C479.795 28.4186 479.709 28.0682 479.543 27.7614C479.376 27.4508 479.143 27.2064 478.844 27.0284C478.548 26.8504 478.204 26.7614 477.81 26.7614C477.389 26.7614 477.02 26.8636 476.702 27.0682C476.384 27.2689 476.135 27.5341 475.957 27.8636C475.783 28.1894 475.694 28.5473 475.69 28.9375V30.1477C475.69 30.6553 475.783 31.0909 475.969 31.4545C476.154 31.8144 476.414 32.0909 476.747 32.2841C477.08 32.4735 477.471 32.5682 477.918 32.5682C478.217 32.5682 478.488 32.5265 478.73 32.4432C478.973 32.3561 479.183 32.2292 479.361 32.0625C479.539 31.8958 479.673 31.6894 479.764 31.4432L481.685 31.6591C481.563 32.1667 481.332 32.6098 480.991 32.9886C480.654 33.3636 480.223 33.6553 479.696 33.8636C479.17 34.0682 478.567 34.1705 477.889 34.1705Z" fill="#403F3D"/>
<path d="M525.642 34H523.392L527.489 22.3636H530.091L534.193 34H531.943L528.835 24.75H528.744L525.642 34ZM525.716 29.4375H531.852V31.1307H525.716V29.4375ZM535.726 34V22.3636H537.783V26.7159H537.868C537.974 26.5038 538.124 26.2784 538.317 26.0398C538.51 25.7973 538.771 25.5909 539.101 25.4205C539.43 25.2462 539.851 25.1591 540.362 25.1591C541.036 25.1591 541.644 25.3314 542.186 25.6761C542.732 26.017 543.163 26.5227 543.482 27.1932C543.804 27.8598 543.964 28.678 543.964 29.6477C543.964 30.6061 543.807 31.4205 543.493 32.0909C543.179 32.7614 542.75 33.2727 542.209 33.625C541.667 33.9773 541.054 34.1534 540.368 34.1534C539.868 34.1534 539.453 34.0701 539.124 33.9034C538.794 33.7367 538.529 33.536 538.328 33.3011C538.131 33.0625 537.978 32.8371 537.868 32.625H537.749V34H535.726ZM537.743 29.6364C537.743 30.2008 537.822 30.6951 537.982 31.1193C538.144 31.5436 538.377 31.875 538.68 32.1136C538.987 32.3485 539.358 32.4659 539.794 32.4659C540.249 32.4659 540.629 32.3447 540.936 32.1023C541.243 31.8561 541.474 31.5208 541.629 31.0966C541.788 30.6686 541.868 30.1818 541.868 29.6364C541.868 29.0947 541.79 28.6136 541.635 28.1932C541.48 27.7727 541.249 27.4432 540.942 27.2045C540.635 26.9659 540.252 26.8466 539.794 26.8466C539.355 26.8466 538.982 26.9621 538.675 27.1932C538.368 27.4242 538.135 27.7481 537.976 28.1648C537.821 28.5814 537.743 29.072 537.743 29.6364ZM549.52 34.1705C548.668 34.1705 547.929 33.983 547.304 33.608C546.679 33.233 546.194 32.7083 545.849 32.0341C545.509 31.3598 545.338 30.572 545.338 29.6705C545.338 28.7689 545.509 27.9792 545.849 27.3011C546.194 26.6231 546.679 26.0966 547.304 25.7216C547.929 25.3466 548.668 25.1591 549.52 25.1591C550.372 25.1591 551.111 25.3466 551.736 25.7216C552.361 26.0966 552.844 26.6231 553.185 27.3011C553.529 27.9792 553.702 28.7689 553.702 29.6705C553.702 30.572 553.529 31.3598 553.185 32.0341C552.844 32.7083 552.361 33.233 551.736 33.608C551.111 33.983 550.372 34.1705 549.52 34.1705ZM549.531 32.5227C549.993 32.5227 550.38 32.3958 550.69 32.142C551.001 31.8845 551.232 31.5398 551.384 31.108C551.539 30.6761 551.616 30.1951 551.616 29.6648C551.616 29.1307 551.539 28.6477 551.384 28.2159C551.232 27.7803 551.001 27.4337 550.69 27.1761C550.38 26.9186 549.993 26.7898 549.531 26.7898C549.058 26.7898 548.664 26.9186 548.349 27.1761C548.039 27.4337 547.806 27.7803 547.651 28.2159C547.499 28.6477 547.423 29.1307 547.423 29.6648C547.423 30.1951 547.499 30.6761 547.651 31.108C547.806 31.5398 548.039 31.8845 548.349 32.142C548.664 32.3958 549.058 32.5227 549.531 32.5227ZM561.01 30.3295V25.2727H563.067V34H561.072V32.4489H560.982C560.785 32.9375 560.461 33.3371 560.01 33.6477C559.563 33.9583 559.012 34.1136 558.357 34.1136C557.785 34.1136 557.279 33.9867 556.839 33.733C556.404 33.4754 556.063 33.1023 555.817 32.6136C555.571 32.1212 555.447 31.5265 555.447 30.8295V25.2727H557.504V30.5114C557.504 31.0644 557.656 31.5038 557.959 31.8295C558.262 32.1553 558.66 32.3182 559.152 32.3182C559.455 32.3182 559.749 32.2443 560.033 32.0966C560.317 31.9489 560.55 31.7292 560.732 31.4375C560.917 31.142 561.01 30.7727 561.01 30.3295ZM569.54 25.2727V26.8636H564.523V25.2727H569.54ZM565.761 23.1818H567.818V31.375C567.818 31.6515 567.86 31.8636 567.943 32.0114C568.03 32.1553 568.144 32.2538 568.284 32.3068C568.424 32.3598 568.58 32.3864 568.75 32.3864C568.879 32.3864 568.996 32.3769 569.102 32.358C569.212 32.339 569.295 32.322 569.352 32.3068L569.699 33.9148C569.589 33.9527 569.432 33.9943 569.227 34.0398C569.027 34.0852 568.78 34.1117 568.489 34.1193C567.973 34.1345 567.509 34.0568 567.097 33.8864C566.684 33.7121 566.356 33.4432 566.114 33.0795C565.875 32.7159 565.758 32.2614 565.761 31.7159V23.1818Z" fill="#403F3D"/>
<path d="M612.148 22.3636H614.727L618.182 30.7955H618.318L621.773 22.3636H624.352V34H622.33V26.0057H622.222L619.006 33.9659H617.494L614.278 25.9886H614.17V34H612.148V22.3636ZM630.364 34.1705C629.511 34.1705 628.773 33.983 628.148 33.608C627.523 33.233 627.038 32.7083 626.693 32.0341C626.352 31.3598 626.182 30.572 626.182 29.6705C626.182 28.7689 626.352 27.9792 626.693 27.3011C627.038 26.6231 627.523 26.0966 628.148 25.7216C628.773 25.3466 629.511 25.1591 630.364 25.1591C631.216 25.1591 631.955 25.3466 632.58 25.7216C633.205 26.0966 633.688 26.6231 634.028 27.3011C634.373 27.9792 634.545 28.7689 634.545 29.6705C634.545 30.572 634.373 31.3598 634.028 32.0341C633.688 32.7083 633.205 33.233 632.58 33.608C631.955 33.983 631.216 34.1705 630.364 34.1705ZM630.375 32.5227C630.837 32.5227 631.223 32.3958 631.534 32.142C631.845 31.8845 632.076 31.5398 632.227 31.108C632.383 30.6761 632.46 30.1951 632.46 29.6648C632.46 29.1307 632.383 28.6477 632.227 28.2159C632.076 27.7803 631.845 27.4337 631.534 27.1761C631.223 26.9186 630.837 26.7898 630.375 26.7898C629.902 26.7898 629.508 26.9186 629.193 27.1761C628.883 27.4337 628.65 27.7803 628.494 28.2159C628.343 28.6477 628.267 29.1307 628.267 29.6648C628.267 30.1951 628.343 30.6761 628.494 31.108C628.65 31.5398 628.883 31.8845 629.193 32.142C629.508 32.3958 629.902 32.5227 630.375 32.5227ZM636.382 34V22.3636H638.439V26.7159H638.524C638.63 26.5038 638.78 26.2784 638.973 26.0398C639.166 25.7973 639.428 25.5909 639.757 25.4205C640.087 25.2462 640.507 25.1591 641.018 25.1591C641.693 25.1591 642.301 25.3314 642.842 25.6761C643.388 26.017 643.82 26.5227 644.138 27.1932C644.46 27.8598 644.621 28.678 644.621 29.6477C644.621 30.6061 644.464 31.4205 644.149 32.0909C643.835 32.7614 643.407 33.2727 642.865 33.625C642.323 33.9773 641.71 34.1534 641.024 34.1534C640.524 34.1534 640.109 34.0701 639.78 33.9034C639.45 33.7367 639.185 33.536 638.984 33.3011C638.787 33.0625 638.634 32.8371 638.524 32.625H638.405V34H636.382ZM638.399 29.6364C638.399 30.2008 638.479 30.6951 638.638 31.1193C638.801 31.5436 639.034 31.875 639.337 32.1136C639.643 32.3485 640.015 32.4659 640.45 32.4659C640.905 32.4659 641.286 32.3447 641.592 32.1023C641.899 31.8561 642.13 31.5208 642.286 31.0966C642.445 30.6686 642.524 30.1818 642.524 29.6364C642.524 29.0947 642.446 28.6136 642.291 28.1932C642.136 27.7727 641.905 27.4432 641.598 27.2045C641.291 26.9659 640.909 26.8466 640.45 26.8466C640.011 26.8466 639.638 26.9621 639.331 27.1932C639.024 27.4242 638.791 27.7481 638.632 28.1648C638.477 28.5814 638.399 29.072 638.399 29.6364ZM646.369 34V25.2727H648.426V34H646.369ZM647.403 24.0341C647.078 24.0341 646.797 23.9261 646.562 23.7102C646.328 23.4905 646.21 23.2273 646.21 22.9205C646.21 22.6098 646.328 22.3466 646.562 22.1307C646.797 21.911 647.078 21.8011 647.403 21.8011C647.733 21.8011 648.013 21.911 648.244 22.1307C648.479 22.3466 648.597 22.6098 648.597 22.9205C648.597 23.2273 648.479 23.4905 648.244 23.7102C648.013 23.9261 647.733 24.0341 647.403 24.0341ZM652.598 22.3636V34H650.541V22.3636H652.598ZM658.577 34.1705C657.702 34.1705 656.946 33.9886 656.31 33.625C655.677 33.2576 655.19 32.7386 654.849 32.0682C654.509 31.3939 654.338 30.6004 654.338 29.6875C654.338 28.7898 654.509 28.0019 654.849 27.3239C655.194 26.642 655.675 26.1117 656.293 25.733C656.91 25.3504 657.635 25.1591 658.469 25.1591C659.007 25.1591 659.514 25.2462 659.991 25.4205C660.473 25.5909 660.897 25.8561 661.264 26.2159C661.635 26.5758 661.927 27.0341 662.139 27.5909C662.351 28.1439 662.457 28.803 662.457 29.5682V30.1989H655.304V28.8125H660.486C660.482 28.4186 660.397 28.0682 660.23 27.7614C660.063 27.4508 659.83 27.2064 659.531 27.0284C659.236 26.8504 658.891 26.7614 658.497 26.7614C658.077 26.7614 657.707 26.8636 657.389 27.0682C657.071 27.2689 656.823 27.5341 656.645 27.8636C656.471 28.1894 656.382 28.5473 656.378 28.9375V30.1477C656.378 30.6553 656.471 31.0909 656.656 31.4545C656.842 31.8144 657.101 32.0909 657.435 32.2841C657.768 32.4735 658.158 32.5682 658.605 32.5682C658.904 32.5682 659.175 32.5265 659.418 32.4432C659.66 32.3561 659.87 32.2292 660.048 32.0625C660.226 31.8958 660.361 31.6894 660.452 31.4432L662.372 31.6591C662.251 32.1667 662.02 32.6098 661.679 32.9886C661.342 33.3636 660.91 33.6553 660.384 33.8636C659.857 34.0682 659.255 34.1705 658.577 34.1705ZM670.678 34.1761C670.125 34.1761 669.626 34.0777 669.183 33.8807C668.744 33.6799 668.395 33.3845 668.138 32.9943C667.884 32.6042 667.757 32.1231 667.757 31.5511C667.757 31.0587 667.848 30.6515 668.03 30.3295C668.212 30.0076 668.46 29.75 668.774 29.5568C669.089 29.3636 669.443 29.2178 669.837 29.1193C670.234 29.017 670.645 28.9432 671.07 28.8977C671.581 28.8447 671.996 28.7973 672.314 28.7557C672.632 28.7102 672.863 28.642 673.007 28.5511C673.155 28.4564 673.229 28.3106 673.229 28.1136V28.0795C673.229 27.6515 673.102 27.3201 672.848 27.0852C672.594 26.8504 672.229 26.733 671.751 26.733C671.248 26.733 670.848 26.8428 670.553 27.0625C670.261 27.2822 670.064 27.5417 669.962 27.8409L668.041 27.5682C668.193 27.0379 668.443 26.5947 668.791 26.2386C669.14 25.8788 669.566 25.6098 670.07 25.4318C670.573 25.25 671.13 25.1591 671.74 25.1591C672.161 25.1591 672.579 25.2083 672.996 25.3068C673.412 25.4053 673.793 25.5682 674.138 25.7955C674.482 26.0189 674.759 26.3239 674.967 26.7102C675.179 27.0966 675.286 27.5795 675.286 28.1591V34H673.308V32.8011H673.24C673.115 33.0436 672.939 33.2708 672.712 33.483C672.488 33.6913 672.206 33.8598 671.865 33.9886C671.528 34.1136 671.132 34.1761 670.678 34.1761ZM671.212 32.6648C671.625 32.6648 671.982 32.5833 672.286 32.4205C672.589 32.2538 672.821 32.0341 672.984 31.7614C673.151 31.4886 673.234 31.1913 673.234 30.8693V29.8409C673.17 29.8939 673.06 29.9432 672.905 29.9886C672.753 30.0341 672.583 30.0739 672.393 30.108C672.204 30.142 672.017 30.1723 671.831 30.1989C671.645 30.2254 671.484 30.2481 671.348 30.267C671.041 30.3087 670.767 30.3769 670.524 30.4716C670.282 30.5663 670.09 30.6989 669.95 30.8693C669.81 31.036 669.74 31.2519 669.74 31.517C669.74 31.8958 669.878 32.1818 670.155 32.375C670.431 32.5682 670.784 32.6648 671.212 32.6648ZM677.354 37.2727V25.2727H679.376V26.7159H679.496C679.602 26.5038 679.751 26.2784 679.945 26.0398C680.138 25.7973 680.399 25.5909 680.729 25.4205C681.058 25.2462 681.479 25.1591 681.99 25.1591C682.664 25.1591 683.272 25.3314 683.814 25.6761C684.359 26.017 684.791 26.5227 685.109 27.1932C685.431 27.8598 685.592 28.678 685.592 29.6477C685.592 30.6061 685.435 31.4205 685.121 32.0909C684.806 32.7614 684.378 33.2727 683.837 33.625C683.295 33.9773 682.681 34.1534 681.996 34.1534C681.496 34.1534 681.081 34.0701 680.751 33.9034C680.422 33.7367 680.157 33.536 679.956 33.3011C679.759 33.0625 679.606 32.8371 679.496 32.625H679.411V37.2727H677.354ZM679.371 29.6364C679.371 30.2008 679.45 30.6951 679.609 31.1193C679.772 31.5436 680.005 31.875 680.308 32.1136C680.615 32.3485 680.986 32.4659 681.422 32.4659C681.876 32.4659 682.257 32.3447 682.564 32.1023C682.871 31.8561 683.102 31.5208 683.257 31.0966C683.416 30.6686 683.496 30.1818 683.496 29.6364C683.496 29.0947 683.418 28.6136 683.263 28.1932C683.107 27.7727 682.876 27.4432 682.57 27.2045C682.263 26.9659 681.88 26.8466 681.422 26.8466C680.982 26.8466 680.609 26.9621 680.303 27.1932C679.996 27.4242 679.763 27.7481 679.604 28.1648C679.448 28.5814 679.371 29.072 679.371 29.6364ZM687.354 37.2727V25.2727H689.376V26.7159H689.496C689.602 26.5038 689.751 26.2784 689.945 26.0398C690.138 25.7973 690.399 25.5909 690.729 25.4205C691.058 25.2462 691.479 25.1591 691.99 25.1591C692.664 25.1591 693.272 25.3314 693.814 25.6761C694.359 26.017 694.791 26.5227 695.109 27.1932C695.431 27.8598 695.592 28.678 695.592 29.6477C695.592 30.6061 695.435 31.4205 695.121 32.0909C694.806 32.7614 694.378 33.2727 693.837 33.625C693.295 33.9773 692.681 34.1534 691.996 34.1534C691.496 34.1534 691.081 34.0701 690.751 33.9034C690.422 33.7367 690.157 33.536 689.956 33.3011C689.759 33.0625 689.606 32.8371 689.496 32.625H689.411V37.2727H687.354ZM689.371 29.6364C689.371 30.2008 689.45 30.6951 689.609 31.1193C689.772 31.5436 690.005 31.875 690.308 32.1136C690.615 32.3485 690.986 32.4659 691.422 32.4659C691.876 32.4659 692.257 32.3447 692.564 32.1023C692.871 31.8561 693.102 31.5208 693.257 31.0966C693.416 30.6686 693.496 30.1818 693.496 29.6364C693.496 29.0947 693.418 28.6136 693.263 28.1932C693.107 27.7727 692.876 27.4432 692.57 27.2045C692.263 26.9659 691.88 26.8466 691.422 26.8466C690.982 26.8466 690.609 26.9621 690.303 27.1932C689.996 27.4242 689.763 27.7481 689.604 28.1648C689.448 28.5814 689.371 29.072 689.371 29.6364Z" fill="#403F3D"/>
<path d="M748.108 26.2898H745.983C745.922 25.9413 745.811 25.6326 745.648 25.3636C745.485 25.0909 745.282 24.8598 745.04 24.6705C744.797 24.4811 744.521 24.339 744.21 24.2443C743.903 24.1458 743.572 24.0966 743.216 24.0966C742.583 24.0966 742.023 24.2557 741.534 24.5739C741.045 24.8883 740.663 25.3504 740.386 25.9602C740.11 26.5663 739.972 27.3068 739.972 28.1818C739.972 29.072 740.11 29.822 740.386 30.4318C740.667 31.0379 741.049 31.4962 741.534 31.8068C742.023 32.1136 742.581 32.267 743.21 32.267C743.559 32.267 743.884 32.2216 744.188 32.1307C744.494 32.036 744.769 31.8977 745.011 31.7159C745.258 31.5341 745.464 31.3106 745.631 31.0455C745.801 30.7803 745.919 30.4773 745.983 30.1364L748.108 30.1477C748.028 30.7008 747.856 31.2197 747.591 31.7045C747.33 32.1894 746.987 32.6174 746.562 32.9886C746.138 33.3561 745.642 33.6439 745.074 33.8523C744.506 34.0568 743.875 34.1591 743.182 34.1591C742.159 34.1591 741.246 33.9223 740.443 33.4489C739.64 32.9754 739.008 32.2917 738.545 31.3977C738.083 30.5038 737.852 29.4318 737.852 28.1818C737.852 26.928 738.085 25.8561 738.551 24.9659C739.017 24.072 739.652 23.3883 740.455 22.9148C741.258 22.4413 742.167 22.2045 743.182 22.2045C743.83 22.2045 744.432 22.2955 744.989 22.4773C745.545 22.6591 746.042 22.9261 746.477 23.2784C746.913 23.6269 747.271 24.0549 747.551 24.5625C747.835 25.0663 748.021 25.642 748.108 26.2898ZM753.754 34.1705C752.902 34.1705 752.163 33.983 751.538 33.608C750.913 33.233 750.429 32.7083 750.084 32.0341C749.743 31.3598 749.572 30.572 749.572 29.6705C749.572 28.7689 749.743 27.9792 750.084 27.3011C750.429 26.6231 750.913 26.0966 751.538 25.7216C752.163 25.3466 752.902 25.1591 753.754 25.1591C754.607 25.1591 755.345 25.3466 755.97 25.7216C756.595 26.0966 757.078 26.6231 757.419 27.3011C757.764 27.9792 757.936 28.7689 757.936 29.6705C757.936 30.572 757.764 31.3598 757.419 32.0341C757.078 32.7083 756.595 33.233 755.97 33.608C755.345 33.983 754.607 34.1705 753.754 34.1705ZM753.766 32.5227C754.228 32.5227 754.614 32.3958 754.925 32.142C755.235 31.8845 755.466 31.5398 755.618 31.108C755.773 30.6761 755.851 30.1951 755.851 29.6648C755.851 29.1307 755.773 28.6477 755.618 28.2159C755.466 27.7803 755.235 27.4337 754.925 27.1761C754.614 26.9186 754.228 26.7898 753.766 26.7898C753.292 26.7898 752.898 26.9186 752.584 27.1761C752.273 27.4337 752.04 27.7803 751.885 28.2159C751.733 28.6477 751.658 29.1307 751.658 29.6648C751.658 30.1951 751.733 30.6761 751.885 31.108C752.04 31.5398 752.273 31.8845 752.584 32.142C752.898 32.3958 753.292 32.5227 753.766 32.5227ZM761.739 28.8864V34H759.682V25.2727H761.648V26.7557H761.75C761.951 26.267 762.271 25.8788 762.71 25.5909C763.153 25.303 763.701 25.1591 764.352 25.1591C764.955 25.1591 765.479 25.2879 765.926 25.5455C766.377 25.803 766.725 26.1761 766.972 26.6648C767.222 27.1534 767.345 27.7462 767.341 28.4432V34H765.284V28.7614C765.284 28.178 765.133 27.7216 764.83 27.392C764.53 27.0625 764.116 26.8977 763.585 26.8977C763.225 26.8977 762.905 26.9773 762.625 27.1364C762.348 27.2917 762.131 27.517 761.972 27.8125C761.816 28.108 761.739 28.4659 761.739 28.8864ZM773.79 25.2727V26.8636H768.773V25.2727H773.79ZM770.011 23.1818H772.068V31.375C772.068 31.6515 772.11 31.8636 772.193 32.0114C772.28 32.1553 772.394 32.2538 772.534 32.3068C772.674 32.3598 772.83 32.3864 773 32.3864C773.129 32.3864 773.246 32.3769 773.352 32.358C773.462 32.339 773.545 32.322 773.602 32.3068L773.949 33.9148C773.839 33.9527 773.682 33.9943 773.477 34.0398C773.277 34.0852 773.03 34.1117 772.739 34.1193C772.223 34.1345 771.759 34.0568 771.347 33.8864C770.934 33.7121 770.606 33.4432 770.364 33.0795C770.125 32.7159 770.008 32.2614 770.011 31.7159V23.1818ZM778.021 34.1761C777.468 34.1761 776.97 34.0777 776.527 33.8807C776.088 33.6799 775.739 33.3845 775.482 32.9943C775.228 32.6042 775.101 32.1231 775.101 31.5511C775.101 31.0587 775.192 30.6515 775.374 30.3295C775.555 30.0076 775.804 29.75 776.118 29.5568C776.432 29.3636 776.786 29.2178 777.18 29.1193C777.578 29.017 777.989 28.9432 778.413 28.8977C778.925 28.8447 779.339 28.7973 779.658 28.7557C779.976 28.7102 780.207 28.642 780.351 28.5511C780.499 28.4564 780.572 28.3106 780.572 28.1136V28.0795C780.572 27.6515 780.446 27.3201 780.192 27.0852C779.938 26.8504 779.572 26.733 779.095 26.733C778.591 26.733 778.192 26.8428 777.896 27.0625C777.605 27.2822 777.408 27.5417 777.305 27.8409L775.385 27.5682C775.536 27.0379 775.786 26.5947 776.135 26.2386C776.483 25.8788 776.91 25.6098 777.413 25.4318C777.917 25.25 778.474 25.1591 779.084 25.1591C779.504 25.1591 779.923 25.2083 780.339 25.3068C780.756 25.4053 781.137 25.5682 781.482 25.7955C781.826 26.0189 782.103 26.3239 782.311 26.7102C782.523 27.0966 782.629 27.5795 782.629 28.1591V34H780.652V32.8011H780.584C780.459 33.0436 780.283 33.2708 780.055 33.483C779.832 33.6913 779.55 33.8598 779.209 33.9886C778.872 34.1136 778.476 34.1761 778.021 34.1761ZM778.555 32.6648C778.968 32.6648 779.326 32.5833 779.629 32.4205C779.932 32.2538 780.165 32.0341 780.328 31.7614C780.495 31.4886 780.578 31.1913 780.578 30.8693V29.8409C780.514 29.8939 780.404 29.9432 780.249 29.9886C780.097 30.0341 779.927 30.0739 779.737 30.108C779.548 30.142 779.36 30.1723 779.175 30.1989C778.989 30.2254 778.828 30.2481 778.692 30.267C778.385 30.3087 778.11 30.3769 777.868 30.4716C777.625 30.5663 777.434 30.6989 777.294 30.8693C777.154 31.036 777.084 31.2519 777.084 31.517C777.084 31.8958 777.222 32.1818 777.499 32.375C777.775 32.5682 778.127 32.6648 778.555 32.6648ZM788.504 34.1705C787.633 34.1705 786.885 33.9792 786.26 33.5966C785.639 33.214 785.16 32.6856 784.822 32.0114C784.489 31.3333 784.322 30.553 784.322 29.6705C784.322 28.7841 784.493 28.0019 784.834 27.3239C785.175 26.642 785.656 26.1117 786.277 25.733C786.902 25.3504 787.641 25.1591 788.493 25.1591C789.201 25.1591 789.828 25.2898 790.374 25.5511C790.923 25.8087 791.36 26.1742 791.686 26.6477C792.012 27.1174 792.197 27.6667 792.243 28.2955H790.277C790.197 27.875 790.008 27.5246 789.709 27.2443C789.413 26.9602 789.018 26.8182 788.521 26.8182C788.101 26.8182 787.732 26.9318 787.413 27.1591C787.095 27.3826 786.847 27.7045 786.669 28.125C786.495 28.5455 786.408 29.0492 786.408 29.6364C786.408 30.2311 786.495 30.7424 786.669 31.1705C786.843 31.5947 787.088 31.9223 787.402 32.1534C787.72 32.3807 788.093 32.4943 788.521 32.4943C788.824 32.4943 789.095 32.4375 789.334 32.3239C789.576 32.2064 789.779 32.0379 789.942 31.8182C790.105 31.5985 790.216 31.3314 790.277 31.017H792.243C792.194 31.6345 792.012 32.1818 791.697 32.6591C791.383 33.1326 790.955 33.5038 790.413 33.7727C789.872 34.0379 789.235 34.1705 788.504 34.1705ZM798.29 25.2727V26.8636H793.273V25.2727H798.29ZM794.511 23.1818H796.568V31.375C796.568 31.6515 796.61 31.8636 796.693 32.0114C796.78 32.1553 796.894 32.2538 797.034 32.3068C797.174 32.3598 797.33 32.3864 797.5 32.3864C797.629 32.3864 797.746 32.3769 797.852 32.358C797.962 32.339 798.045 32.322 798.102 32.3068L798.449 33.9148C798.339 33.9527 798.182 33.9943 797.977 34.0398C797.777 34.0852 797.53 34.1117 797.239 34.1193C796.723 34.1345 796.259 34.0568 795.847 33.8864C795.434 33.7121 795.106 33.4432 794.864 33.0795C794.625 32.7159 794.508 32.2614 794.511 31.7159V23.1818ZM809.541 30.3295V25.2727H811.598V34H809.604V32.4489H809.513C809.316 32.9375 808.992 33.3371 808.541 33.6477C808.094 33.9583 807.543 34.1136 806.888 34.1136C806.316 34.1136 805.81 33.9867 805.371 33.733C804.935 33.4754 804.594 33.1023 804.348 32.6136C804.102 32.1212 803.979 31.5265 803.979 30.8295V25.2727H806.036V30.5114C806.036 31.0644 806.187 31.5038 806.49 31.8295C806.793 32.1553 807.191 32.3182 807.683 32.3182C807.986 32.3182 808.28 32.2443 808.564 32.0966C808.848 31.9489 809.081 31.7292 809.263 31.4375C809.448 31.142 809.541 30.7727 809.541 30.3295ZM820.611 27.5795L818.736 27.7841C818.683 27.5947 818.59 27.4167 818.457 27.25C818.329 27.0833 818.154 26.9489 817.935 26.8466C817.715 26.7443 817.446 26.6932 817.128 26.6932C816.7 26.6932 816.34 26.786 816.048 26.9716C815.76 27.1572 815.618 27.3977 815.622 27.6932C815.618 27.947 815.711 28.1534 815.901 28.3125C816.094 28.4716 816.412 28.6023 816.855 28.7045L818.344 29.0227C819.17 29.2008 819.783 29.483 820.185 29.8693C820.59 30.2557 820.795 30.7614 820.798 31.3864C820.795 31.9356 820.634 32.4205 820.315 32.8409C820.001 33.2576 819.563 33.5833 819.003 33.8182C818.442 34.053 817.798 34.1705 817.071 34.1705C816.003 34.1705 815.143 33.947 814.491 33.5C813.84 33.0492 813.452 32.4223 813.327 31.6193L815.332 31.4261C815.423 31.8201 815.616 32.1174 815.912 32.3182C816.207 32.5189 816.592 32.6193 817.065 32.6193C817.554 32.6193 817.946 32.5189 818.241 32.3182C818.541 32.1174 818.69 31.8693 818.69 31.5739C818.69 31.3239 818.594 31.1174 818.401 30.9545C818.211 30.7917 817.916 30.6667 817.514 30.5795L816.026 30.267C815.188 30.0928 814.569 29.7992 814.168 29.3864C813.766 28.9697 813.567 28.4432 813.571 27.8068C813.567 27.2689 813.713 26.803 814.009 26.4091C814.308 26.0114 814.723 25.7045 815.253 25.4886C815.787 25.2689 816.402 25.1591 817.099 25.1591C818.122 25.1591 818.927 25.3769 819.514 25.8125C820.105 26.2481 820.471 26.8371 820.611 27.5795Z" fill="#403F3D"/>
</svg>
