<svg width="204" height="60" viewBox="0 0 204 60" fill="none" xmlns="http://www.w3.org/2000/svg">
<rect x="0.5" y="0.5" width="59" height="59" rx="29.5" stroke="#C1B6AD"/>
<path d="M41 21.0101C41 21.0101 38.9821 22.2022 37.86 22.5401C37.2577 21.8476 36.4573 21.3567 35.567 21.134C34.6767 20.9112 33.7395 20.9673 32.8821 21.2945C32.0247 21.6218 31.2884 22.2045 30.773 22.9638C30.2575 23.7231 29.9877 24.6224 30 25.5401V26.5401C28.2426 26.5856 26.5013 26.1959 24.931 25.4055C23.3607 24.6151 22.0103 23.4487 21 22.0101C21 22.0101 17 31.0101 26 35.0101C23.9405 36.408 21.4872 37.109 19 37.0101C28 42.0101 39 37.0101 39 25.5101C38.9991 25.2315 38.9723 24.9537 38.92 24.6801C39.9406 23.6735 41 21.0101 41 21.0101Z" stroke="#E1D4C9" stroke-linecap="round" stroke-linejoin="round"/>
<rect x="72.5" y="0.5" width="59" height="59" rx="29.5" stroke="#C1B6AD"/>
<path d="M102 34C104.209 34 106 32.2091 106 30C106 27.7909 104.209 26 102 26C99.7909 26 98 27.7909 98 30C98 32.2091 99.7909 34 102 34Z" stroke="#E1D4C9" stroke-linecap="round" stroke-linejoin="round"/>
<path d="M93 34V26C93 23.2386 95.2386 21 98 21H106C108.761 21 111 23.2386 111 26V34C111 36.7614 108.761 39 106 39H98C95.2386 39 93 36.7614 93 34Z" stroke="#E1D4C9"/>
<path d="M107.5 24.51L107.51 24.4989" stroke="#E1D4C9" stroke-linecap="round" stroke-linejoin="round"/>
<rect x="144.5" y="0.5" width="59" height="59" rx="29.5" stroke="#C1B6AD"/>
<path d="M179 20H176C174.674 20 173.402 20.5268 172.464 21.4645C171.527 22.4021 171 23.6739 171 25V28H168V32H171V40H175V32H178L179 28H175V25C175 24.7348 175.105 24.4804 175.293 24.2929C175.48 24.1054 175.735 24 176 24H179V20Z" stroke="#E1D4C9" stroke-linecap="round" stroke-linejoin="round"/>
</svg>
